<?xml version="1.0" encoding="UTF-8"?><svg id="Laag_1" xmlns="http://www.w3.org/2000/svg" viewBox="0 0 1126.5 196.03"><defs><style>.cls-1{fill:#393c9f;stroke-width:0px;}</style></defs><path class="cls-1" d="m804.32,97.45c49-50.9.4-90.6-25.7-91.2-20.9-.3-72.6,0-72.6,0h.4l-30,187.3h87.3c36,0,88.5-52.9,40.6-96.1Zm-48.4,59.9h-34.2l6-37.6h32.4c30.9,0,30,37.6-4.2,37.6Zm4.7-76.2h-26.8l5.9-35h25.2c27.4,0,21.8,35-4.3,35Z"/><path class="cls-1" d="m936.4,5.46c-43-9.9-87.7,24.3-99.8,76.4-11.9,52.2,13.1,102.5,56,112.5,43,9.8,87.6-24.4,99.8-76.5,11.9-52.2-13.2-102.5-56-112.4Zm15.1,110.9c-10.4,31.2-35.6,49.4-56.1,40.1-20.4-9.1-28.7-42-18.2-73.4,10.5-31.5,35.6-49.3,56-40.2,20.5,9.2,28.8,42.1,18.3,73.5Z"/><path class="cls-1" d="m144.2,169.36l10.8-68.7h-71.9l-5.7,35.4h30.2l-3.5,18.9c-17.2,7.1-46.4,4.4-58.9-18-7.9-14.2-15.3-45.8,18-74.9,27.2-23.7,74.2-28,101.3-15.6,0,0,3.4-19.9,6-38.3-52.1-18-92.6-3-119.7,13.8C13.7,44.66-4.1,79.56.8,126.96c5.5,54.9,76.6,89.6,136.9,54.6.7-.3,1-.6,1.6-.7"/><path class="cls-1" d="m214.8,99.66l16.4-36.6,7.2,36.6h-23.6Zm-75.5,80.2c-1.92,4.38-3.86,8.64-5.8,12.8h40.5l25.5-56.5h44.8l9.8,56.5h42.27c-2.16-12.07-4.32-24.13-6.47-36.2L264.4,3.97h-47.8c-24.13,54.8-48.27,109.6-72.4,164.4-1.56,3.78-3.2,7.62-4.9,11.5Z"/><path class="cls-1" d="m507.6,191.86h108.1l6.5-40.4h-67.6l5.3-33.7h58.9l6.4-40.5h-59.4l5.1-33.5h67.7l6.4-40.5h-107.3l-30.1,188.6Z"/><polygon class="cls-1" points="1042.9 64.03 1018.7 2.53 974.3 2.53 1020.1 102.03 1005.9 191.13 1044.8 191.13 1056.6 112.33 1126.5 2.53 1081.1 2.53 1042.9 64.03"/><path class="cls-1" d="m275.2,192.66h44.89l33.6-105.5,27.6,105.5h25.8l44.3-116.8,17.5,117.5h38.7L493.5,3.96h-46.6l-44.5,103.5L382.7,3.96h-38.3c-18.17,50.83-36.33,101.67-54.5,152.5l-14.69,36.2Zm197.5.8"/></svg>