<?xml version="1.0" encoding="utf-8"?>
<!-- Generator: Adobe Illustrator 27.8.0, SVG Export Plug-In . SVG Version: 6.00 Build 0)  -->
<svg version="1.1" id="Laag_1" xmlns="http://www.w3.org/2000/svg" xmlns:xlink="http://www.w3.org/1999/xlink" x="0px" y="0px"
	 viewBox="0 0 1126.5 197.4" style="enable-background:new 0 0 1126.5 197.4;" xml:space="preserve">
<style type="text/css">
	.st0{fill:#393C9F;}
</style>
<path class="st0" d="M804.3,98.6c49-50.9,0.4-90.6-25.7-91.2c-20.9-0.3-72.6,0-72.6,0h0.4l-30,187.3h87.3
	C799.7,194.7,852.2,141.8,804.3,98.6z M755.9,158.5h-34.2l6-37.6h32.4C791,120.9,790.1,158.5,755.9,158.5z M760.6,82.3L760.6,82.3
	h-26.8l5.9-35h25.2C792.3,47.3,786.7,82.3,760.6,82.3z"/>
<path class="st0" d="M936.4,6.6c-43-9.9-87.7,24.3-99.8,76.4c-11.9,52.2,13.1,102.5,56,112.5c43,9.8,87.6-24.4,99.8-76.5
	C1004.3,66.8,979.2,16.5,936.4,6.6z M951.5,117.5c-10.4,31.2-35.6,49.4-56.1,40.1c-20.4-9.1-28.7-42-18.2-73.4
	c10.5-31.5,35.6-49.3,56-40.2C953.7,53.2,962,86.1,951.5,117.5z"/>
<path class="st0" d="M144.2,170.5l10.8-68.7H83.1l-5.7,35.4h30.2l-3.5,18.9c-17.2,7.1-46.4,4.4-58.9-18c-7.9-14.2-15.3-45.8,18-74.9
	c27.2-23.7,74.2-28,101.3-15.6c0,0,3.4-19.9,6-38.3c-52.1-18-92.6-3-119.7,13.8c-37.1,22.7-54.9,57.6-50,105
	c5.5,54.9,76.6,89.6,136.9,54.6c0.7-0.3,1-0.6,1.6-0.7"/>
<path class="st0" d="M214.8,100.8l16.4-36.6l7.2,36.6H214.8z M139.3,181c-1.9,4.4-3.9,8.6-5.8,12.8H174l25.5-56.5h44.8l9.8,56.5
	c14.1,0,28.2,0,42.3,0c-2.2-12.1-4.3-24.1-6.5-36.2c-8.5-50.8-17-101.7-25.5-152.5c-15.9,0-31.9,0-47.8,0
	c-24.1,54.8-48.3,109.6-72.4,164.4C142.6,173.3,141,177.1,139.3,181z"/>
<path class="st0" d="M507.6,193h108.1l6.5-40.4h-67.6l5.3-33.7h58.9l6.4-40.5h-59.4l5.1-33.5h67.7L645,4.4H537.7L507.6,193z"/>
<polygon class="st0" points="1042.9,65.2 1018.7,3.7 974.3,3.7 1020.1,103.2 1005.9,192.3 1044.8,192.3 1056.6,113.5 1126.5,3.7 
	1081.1,3.7 "/>
<path class="st0" d="M275.2,193.8c15,0,29.9,0,44.9,0l33.6-105.5l27.6,105.5h25.8L451.4,77l17.5,117.5h38.7L493.5,5.1h-46.6
	l-44.5,103.5L382.7,5.1h-38.3c-18.2,50.8-36.3,101.7-54.5,152.5C285,169.7,280.1,181.7,275.2,193.8z M472.7,194.6"/>
</svg>
