<?xml version="1.0" encoding="UTF-8"?><svg id="Laag_2" xmlns="http://www.w3.org/2000/svg" viewBox="0 0 363.65 363.65"><defs><style>.cls-1{stroke-width:0px;}</style></defs><g id="Laag_1-2"><path class="cls-1" d="m182.25,44.32c-75.66,0-137,61.34-137,137s61.34,137,137,137,137-61.34,137-137S257.92,44.32,182.25,44.32Zm-.41,211.91c-41.38,0-74.92-33.54-74.92-74.92s33.54-74.92,74.92-74.92,74.92,33.54,74.92,74.92-33.54,74.92-74.92,74.92Z"/><rect class="cls-1" x="151.25" width="62" height="89.65" rx="12" ry="12"/><rect class="cls-1" x="151.25" y="274" width="62" height="89.65" rx="12" ry="12"/><rect class="cls-1" x="287.82" y="136.49" width="62" height="89.65" rx="12" ry="12" transform="translate(500.14 -137.51) rotate(90)"/><rect class="cls-1" x="13.82" y="136.49" width="62" height="89.65" rx="12" ry="12" transform="translate(226.14 136.49) rotate(90)"/><rect class="cls-1" x="247.7" y="233.36" width="62" height="89.65" rx="12" ry="12" transform="translate(672.47 277.82) rotate(135)"/><rect class="cls-1" x="53.95" y="39.61" width="62" height="89.65" rx="12" ry="12" transform="translate(204.73 84.08) rotate(135)"/><rect class="cls-1" x="53.95" y="233.36" width="62" height="89.65" rx="12" ry="12" transform="translate(-51.69 534.96) rotate(-135)"/><rect class="cls-1" x="247.7" y="39.61" width="62" height="89.65" rx="12" ry="12" transform="translate(416.06 341.22) rotate(-135)"/></g></svg>